<svg width="11" height="16" viewBox="0 0 11 16" fill="none" xmlns="http://www.w3.org/2000/svg">
    <path d="M1.93572 2.40756C0.0362621 4.2843 1.55355 8.07128 1.93572 9.20385C2.2276 10.0688 4.07974 13.5767 4.93866 15.186C5.12593 15.5369 5.62415 15.5369 5.81142 15.186C6.67033 13.5767 8.52239 10.069 8.81428 9.20385C9.19646 8.07099 10.7137 4.2843 8.81428 2.40756C6.91481 0.530814 3.83518 0.530814 1.93572 2.40756Z" stroke="#FFAE4F"/>
    <path d="M3.51884 7.73953C2.49372 6.72567 2.49372 5.08187 3.51884 4.06801C4.54397 3.05415 6.20603 3.05415 7.23116 4.06801C8.25628 5.08187 8.25628 6.72567 7.23116 7.73953C6.20603 8.75339 4.54397 8.75339 3.51884 7.73953Z" stroke="#FFAE4F" stroke-width="1.2"/>
</svg>
