<svg width="70" height="70" viewBox="0 0 70 70" fill="none" xmlns="http://www.w3.org/2000/svg">
    <path d="M33.6731 21.0626V21.0626C33.6731 19.9235 34.5965 19.0001 35.7356 19.0001L52.25 19.0001M33.6731 21.0626V25.6001M33.6731 21.0626H29.25M24.8269 23.5376V23.0626C24.8269 21.9581 25.7224 21.0626 26.8269 21.0626H29.25M24.8269 23.5376H19.75C18.6454 23.5376 17.75 24.4331 17.75 25.5376V26.8376M24.8269 23.5376V26.8376M24.8269 30.9626H19.75C18.6454 30.9626 17.75 30.0672 17.75 28.9626V27.2501M24.8269 30.9626V33.0251M24.8269 30.9626V27.6626M24.8269 33.0251H29.25M24.8269 33.0251H33.2308M33.2308 33.0251V33.0251C33.2308 34.1642 34.1542 35.0876 35.2933 35.0876H43.4038M33.2308 33.0251V28.9001M33.2308 33.0251H29.25M29.25 21.0626V33.0251M24.8269 26.8376H22.1433C21.9155 26.8376 21.7308 27.0223 21.7308 27.2501V27.2501C21.7308 27.4779 21.9155 27.6626 22.1433 27.6626H24.8269M24.8269 26.8376V27.6626M17.75 26.8376H12.2062C12.0923 26.8376 12 26.9299 12 27.0439V27.0439C12 27.1578 12.0923 27.2501 12.2062 27.2501H17.75M17.75 26.8376V27.2501M43.4038 35.0876H49.1538M43.4038 35.0876V40.0375M43.4038 35.0876L39.377 37.136C38.8625 37.3977 38.5385 37.9261 38.5385 38.5034V38.5034C38.5385 39.3507 39.2253 40.0375 40.0726 40.0375H43.4038M49.1538 35.0876H52.25M49.1538 35.0876V43M43.4038 40.0375V44.225C43.4038 45.3296 42.5084 46.225 41.4038 46.225H37.8846C36.78 46.225 35.8846 47.1205 35.8846 48.225V50C35.8846 51.1046 36.78 52 37.8846 52H49.8077C50.9123 52 51.8077 51.1046 51.8077 50V47.9644C51.8077 47.2316 51.2136 46.6375 50.4808 46.6375V46.6375C49.7479 46.6375 49.1538 46.0434 49.1538 45.3106V45M52.25 35.0876H54C56.2091 35.0876 58 33.2967 58 31.0876V23C58 20.7909 56.2091 19 54 19L52.25 19.0001M52.25 35.0876V19.0001M49.1538 45H43.4038V43H49.1538M49.1538 45V43M48.063 29.7251H40.9562C40.8423 29.7251 40.75 29.6328 40.75 29.5188V29.5188C40.75 29.4049 40.8423 29.3126 40.9562 29.3126H48.063C48.1769 29.3126 48.2692 29.4049 48.2692 29.5188V29.5188C48.2692 29.6328 48.1769 29.7251 48.063 29.7251ZM48.063 27.2501H40.9562C40.8423 27.2501 40.75 27.1578 40.75 27.0439V27.0439C40.75 26.9299 40.8423 26.8376 40.9562 26.8376H48.063C48.1769 26.8376 48.2692 26.9299 48.2692 27.0439V27.0439C48.2692 27.1578 48.1769 27.2501 48.063 27.2501ZM48.063 24.7751H40.9562C40.8423 24.7751 40.75 24.6828 40.75 24.5689V24.5689C40.75 24.455 40.8423 24.3626 40.9562 24.3626H48.063C48.1769 24.3626 48.2692 24.455 48.2692 24.5689V24.5689C48.2692 24.6828 48.1769 24.7751 48.063 24.7751Z" stroke="#FFAE4F"/>
    <path d="M59.0416 59.0416C45.7638 72.3195 24.2362 72.3195 10.9584 59.0416C-2.31946 45.7638 -2.31946 24.2362 10.9584 10.9584C24.2362 -2.31946 45.7638 -2.31946 59.0416 10.9584C72.3195 24.2362 72.3195 45.7638 59.0416 59.0416Z" stroke="#FFAE4F" stroke-width="2"/>
</svg>
