<svg width="70" height="70" viewBox="0 0 70 70" fill="none" xmlns="http://www.w3.org/2000/svg">
    <path d="M41.9783 15H29.0652C28.7891 15 28.5652 15.2239 28.5652 15.5V38.8478C28.5652 39.124 28.3414 39.3478 28.0652 39.3478H20.2548C19.8028 39.3478 19.5828 39.8999 19.9109 40.2108L35.1779 54.6742C35.3707 54.8569 35.6728 54.8569 35.8656 54.6742L51.1326 40.2108C51.4607 39.8999 51.2407 39.3478 50.7887 39.3478H42.9783C42.7021 39.3478 42.4783 39.124 42.4783 38.8478V15.5C42.4783 15.2239 42.2544 15 41.9783 15Z" stroke="#FFAE4F"/>
    <path d="M38.1416 34.5373C38.1416 33.8299 37.9392 33.234 37.5345 32.7496C37.136 32.2652 36.4604 31.8269 35.5077 31.4348C34.1814 30.935 33.2131 30.2853 32.6029 29.4856C31.9989 28.6783 31.6969 27.6556 31.6969 26.4177C31.6969 25.1567 31.9927 24.1225 32.5842 23.3152C33.182 22.5078 34.0008 22.0273 35.0407 21.8735V19.3477H36.2643V21.8735C37.3103 22.0503 38.2911 22.6039 38.8701 23.5112C39.4555 24.4185 39.7481 25.6603 39.7481 27.2366H38.0295C38.0295 26.1524 37.8209 25.2913 37.4037 24.6531C36.9866 24.0149 36.423 23.6958 35.7132 23.6958C34.9722 23.6958 34.4056 23.9341 34.0133 24.4109C33.621 24.8799 33.4249 25.5373 33.4249 26.3831C33.4249 27.1674 33.6303 27.794 34.0413 28.263C34.4585 28.7244 35.1403 29.1473 36.0868 29.5317C37.0395 29.9085 37.7805 30.3275 38.3097 30.7889C38.8452 31.2425 39.2375 31.7731 39.4866 32.3805C39.7419 32.9879 39.8695 33.6992 39.8695 34.5142C39.8695 35.8136 39.552 36.8593 38.9168 37.6513C38.2879 38.4433 37.4037 38.9123 36.2643 39.0584V40.9999H35.0407V39.0584C33.8825 38.9277 32.8146 38.4202 32.1546 37.536C31.5008 36.6441 31.1739 35.4369 31.1739 33.9145H32.9018C32.9018 34.9832 33.1291 35.806 33.5836 36.3826C34.0382 36.9593 34.6827 37.2476 35.517 37.2476C36.3327 37.2476 36.9741 37.0054 37.4411 36.521C37.9081 36.0366 38.1416 35.3754 38.1416 34.5373Z" fill="#FFAE4F"/>
    <path d="M34.6522 40.9999V19.3477H36.3913V40.9999H34.6522Z" fill="#FFAE4F"/>
    <path d="M59.0416 59.0416C45.7638 72.3195 24.2362 72.3195 10.9584 59.0416C-2.31946 45.7638 -2.31946 24.2362 10.9584 10.9584C24.2362 -2.31946 45.7638 -2.31946 59.0416 10.9584C72.3195 24.2362 72.3195 45.7638 59.0416 59.0416Z" stroke="#FFAE4F" stroke-width="2"/>
</svg>
