<svg width="70" height="70" viewBox="0 0 70 70" fill="none" xmlns="http://www.w3.org/2000/svg">
    <path d="M47.5983 42.8376C47.5983 44.7918 49.1825 46.3761 51.1368 46.3761C53.091 46.3761 54.6752 44.7918 54.6752 42.8376C54.6752 40.8834 53.091 39.2991 51.1368 39.2991C49.1825 39.2991 47.5983 40.8834 47.5983 42.8376Z" stroke="#FFAE4F"/>
    <path d="M25.5812 43.2308C25.5812 44.9679 26.9894 46.3761 28.7265 46.3761C30.4636 46.3761 31.8718 44.9679 31.8718 43.2308C31.8718 41.4937 30.4636 40.0855 28.7265 40.0855C26.9894 40.0855 25.5812 41.4937 25.5812 43.2308Z" stroke="#FFAE4F"/>
    <path d="M18.5043 43.2308C18.5043 44.9679 19.9125 46.3761 21.6496 46.3761C23.3867 46.3761 24.7949 44.9679 24.7949 43.2308C24.7949 41.4937 23.3867 40.0855 21.6496 40.0855C19.9125 40.0855 18.5043 41.4937 18.5043 43.2308Z" stroke="#FFAE4F"/>
    <path d="M20.8632 43.2308C20.8632 43.665 21.2153 44.0171 21.6496 44.0171C22.0838 44.0171 22.4359 43.665 22.4359 43.2308C22.4359 42.7965 22.0838 42.4444 21.6496 42.4444C21.2153 42.4444 20.8632 42.7965 20.8632 43.2308Z" stroke="#FFAE4F"/>
    <path d="M27.9402 43.2308C27.9402 43.665 28.2922 44.0171 28.7265 44.0171C29.1608 44.0171 29.5128 43.665 29.5128 43.2308C29.5128 42.7965 29.1608 42.4444 28.7265 42.4444C28.2922 42.4444 27.9402 42.7965 27.9402 43.2308Z" fill="#FFAE4F" stroke="#FFAE4F"/>
    <path d="M49.9573 42.8376C49.9573 43.489 50.4853 44.0171 51.1368 44.0171C51.7882 44.0171 52.3162 43.489 52.3162 42.8376C52.3162 42.1862 51.7882 41.6581 51.1368 41.6581C50.4853 41.6581 49.9573 42.1862 49.9573 42.8376Z" fill="#FFAE4F" stroke="#FFAE4F"/>
    <path d="M20.8632 43.2308C20.8632 43.665 21.2153 44.0171 21.6496 44.0171C22.0838 44.0171 22.4359 43.665 22.4359 43.2308C22.4359 42.7965 22.0838 42.4444 21.6496 42.4444C21.2153 42.4444 20.8632 42.7965 20.8632 43.2308Z" fill="#FFAE4F" stroke="#FFAE4F"/>
    <path d="M31.8718 41.6581H47.5983" stroke="#FFAE4F"/>
    <path d="M14.9658 38.906V39.6581C14.9658 40.7627 15.8612 41.6581 16.9658 41.6581H18.8974" stroke="#FFAE4F"/>
    <path d="M18.1112 35.7607H45.2394M48.7779 24V36.5128C48.7779 37.6174 47.8824 38.5128 46.7779 38.5128H15C13.8954 38.5128 13 37.6174 13 36.5128V24C13 22.8954 13.8954 22 15 22H46.7779C47.8824 22 48.7779 22.8954 48.7779 24Z" stroke="#FFAE4F"/>
    <path d="M48.7778 25.9316H54.6641C55.1306 25.9316 55.5352 26.2542 55.639 26.7091L56 28.2906M56 28.2906H53.1026C52.0169 28.2906 51.1368 29.1707 51.1368 30.2564V30.2564C51.1368 31.3421 52.0169 32.2222 53.1026 32.2222H56.641M56 28.2906C56 28.2906 57 28.7436 57 30C57 31.2564 56.641 32.2222 56.641 32.2222M56.641 32.2222H57C58.1046 32.2222 59 33.1177 59 34.2222V39.6581C59 40.7627 58.1046 41.6581 57 41.6581H54.6752" stroke="#FFAE4F"/>
    <path d="M59.0416 59.0416C45.7638 72.3195 24.2362 72.3195 10.9584 59.0416C-2.31946 45.7638 -2.31946 24.2362 10.9584 10.9584C24.2362 -2.31946 45.7638 -2.31946 59.0416 10.9584C72.3195 24.2362 72.3195 45.7638 59.0416 59.0416Z" stroke="#FFAE4F" stroke-width="2"/>
</svg>
