<svg width="70" height="69" viewBox="0 0 70 69" fill="none" xmlns="http://www.w3.org/2000/svg">
    <path d="M23 17.844C23.8633 16.6929 23.7718 14.8964 25.2105 14.8964C26.6493 14.8964 24.5906 17.365 25.9474 17.8439C26.7614 18.1312 27.4673 18.3618 28.1579 17.8439C28.6726 17.4578 28.2843 16.5735 28.8947 16.3701C29.6669 16.1127 30.3416 17.5624 31.1053 17.8438C32.8342 18.4807 31.877 13.0086 33.3158 14.1596C34.4393 15.0584 33.666 16.945 34.7895 17.8438C35.6883 18.5628 36.8766 17.8717 37.7368 17.107C38.2178 16.6795 37.8932 15.9109 38.4737 15.6333C39.4097 15.1857 38.969 17.4988 39.9474 17.8441C41.3041 18.3229 42.8947 16.3703 42.8947 16.3703" stroke="#FFAE4F"/>
    <path d="M24.0354 23.7782C24.0354 23.7782 23.7549 22.101 24.7723 22.3044C25.5704 22.4641 26.2191 23.4967 26.9828 23.7781C28.7117 24.4151 29.0305 19.2475 30.667 20.094C31.9703 20.7681 30.0221 23.2847 31.4039 23.7782C31.9459 23.9718 32.3779 24.0637 32.8776 23.7782C33.4362 23.459 33.7408 22.5079 34.3512 22.3044C35.1234 22.0471 35.0768 23.4576 35.8249 23.7782C36.6184 24.1182 37.3448 24.2961 38.0355 23.7782C38.5502 23.3921 38.2136 21.8868 38.7723 21.5676C39.6731 21.0528 39.9985 24.1062 40.9828 23.7781C43.1933 23.0413 41.8933 23.1598 42.4565 23.0413" stroke="#FFAE4F"/>
    <path d="M42.4211 30.7782C42.4211 30.7782 42.7016 29.101 41.6842 29.3044C40.8861 29.4641 40.2374 30.4967 39.4737 30.7781C37.7448 31.4151 37.4261 26.2475 35.7895 27.094C34.4862 27.7681 36.4344 30.2847 35.0526 30.7782C34.5107 30.9718 34.0786 31.0637 33.579 30.7782C33.0203 30.459 32.7157 29.5079 32.1053 29.3044C31.3332 29.0471 31.3797 30.4576 30.6316 30.7782C29.8381 31.1182 29.1117 31.2961 28.4211 30.7782C27.9063 30.3921 28.2429 28.8868 27.6842 28.5676C26.7834 28.0528 26.458 31.1062 25.4737 30.7781C23.2632 30.0413 24.5632 30.1598 24 30.0413" stroke="#FFAE4F"/>
    <circle cx="42.3684" cy="42.3684" r="6.86842" stroke="#FFAE4F"/>
    <path d="M44.3224 8H22C21.4477 8 21 8.44771 21 9V46.7895C21 47.3418 21.4477 47.7895 22 47.7895H35.5762C36.4685 47.7895 37.0244 46.6032 36.6141 45.8109C35.7811 44.2024 35.1228 41.7543 36.5 39C38.2546 35.4908 42.1476 35.4795 44.1906 35.7484C44.8519 35.8355 45.4956 35.3324 45.4912 34.6654L45.3223 8.99342C45.3187 8.44372 44.8721 8 44.3224 8Z" stroke="#FFAE4F"/>
    <path d="M37.9474 47.5264L36.7138 59.2458C36.6224 60.1141 37.6097 60.6743 38.3083 60.1504L41.8024 57.5298C42.1416 57.2754 42.6043 57.2626 42.9571 57.4978L47.1017 60.2608C47.8268 60.7442 48.7801 60.1335 48.6442 59.2728L46.7895 47.5264" stroke="#FFAE4F"/>
    <path d="M45.5701 57.0636L44.0115 49.7902C43.9127 49.3292 43.5052 48.9998 43.0337 48.9998H41.762C41.2644 48.9998 40.8425 49.3657 40.7721 49.8583L39.7625 56.9256C39.6365 57.8076 40.6397 58.4016 41.3524 57.867L41.8305 57.5085C42.1558 57.2645 42.5964 57.2418 42.945 57.451L44.0778 58.1306C44.8278 58.5806 45.7534 57.9189 45.5701 57.0636Z" fill="#FFAE4F"/>
    <path d="M42.3684 40.5788C43.3713 40.5788 44.1116 40.7852 44.5892 41.198C45.0736 41.6108 45.3158 42.1612 45.3158 42.8492C45.3158 43.2964 45.1998 43.7092 44.9678 44.0876C44.7427 44.4591 44.3947 44.7584 43.924 44.9855C43.46 45.2056 42.8835 45.3157 42.1944 45.3157C41.6896 45.3157 41.1881 45.2538 40.6901 45.1299C40.471 45.0747 40.2656 45.0092 40.0737 44.9335C39.6841 44.7798 39.555 44.3201 39.734 43.9414V43.9414C39.9517 43.4807 40.5316 43.3293 41.0162 43.4868C41.0404 43.4947 41.0647 43.5023 41.0892 43.5097C41.4371 43.6129 41.7851 43.6645 42.133 43.6645C42.481 43.6645 42.7573 43.5991 42.962 43.4684C43.1735 43.3308 43.2792 43.1416 43.2792 42.9008C43.2792 42.66 43.1769 42.4777 42.9722 42.3539C42.7675 42.23 42.4059 42.1681 41.8874 42.1681H41.0314C40.4458 42.1681 39.9855 41.6671 40.035 41.0836L40.2235 38.8627C40.2674 38.3451 40.7004 37.9473 41.2199 37.9473H44.076C44.512 37.9473 44.8655 38.3007 44.8655 38.7367V38.7367C44.8655 39.1728 44.512 39.5262 44.076 39.5262H42.4618C42.1889 39.5262 41.9613 39.7348 41.9375 40.0067L41.9294 40.0997C41.9068 40.3573 42.1098 40.5788 42.3684 40.5788V40.5788Z" fill="#FFAE4F"/>
    <path d="M59.0416 58.1881C45.7638 71.2706 24.2362 71.2706 10.9584 58.1881C-2.31946 45.1055 -2.31946 23.8945 10.9584 10.8119C24.2362 -2.27064 45.7638 -2.27064 59.0416 10.8119C72.3195 23.8945 72.3195 45.1055 59.0416 58.1881Z" stroke="#FFAE4F" stroke-width="2"/>
</svg>
