<svg width="57" height="57" viewBox="0 0 57 57" fill="none" xmlns="http://www.w3.org/2000/svg">
    <path d="M12.5383 39.8667V36.9333H5.61523V56H12.5383V53.0667M12.5383 39.8667H16.7691L22.5383 35.1L27.4941 26.4848C28.3811 24.9428 30.3205 24.3657 31.9062 25.172V25.172C33.5362 26.0007 34.1976 27.9853 33.3908 29.6262L29.0768 38.4L29.4614 39.8667H34.7517C36.3185 39.8667 37.8508 39.4066 39.1584 38.5435L47.1537 33.2667L49.862 22.6161C50.0931 21.7074 50.7519 20.9679 51.628 20.6338V20.6338C53.6332 19.8691 55.7407 21.4862 55.5212 23.621L54.1744 36.717C54.111 37.3342 53.8533 37.9152 53.4385 38.3766L42.6144 50.4154C41.0971 52.1029 38.9346 53.0667 36.6653 53.0667H12.5383M12.5383 39.8667V53.0667" stroke="#FFAE4F" stroke-width="2"/>
    <path d="M20.0237 36.1795L2.51208 24.7201C1.76774 24.233 1.98217 23.0894 2.8524 22.905L3.68293 22.7291C4.33891 22.5901 4.67494 21.8576 4.35238 21.2697L4.29354 21.1625C3.9853 20.6007 4.27756 19.898 4.89329 19.7206L6.1161 19.3681C6.61574 19.2241 6.92165 18.7212 6.81977 18.2113L6.62356 17.2293C6.49994 16.6106 6.97321 16.0334 7.60418 16.0334H8.46154C9.01382 16.0334 9.46154 15.5857 9.46154 15.0334V14.6242C9.46154 13.821 10.3605 13.3456 11.0244 13.7976L27.5243 25.0333C27.9636 25.3324 28.0922 25.9229 27.817 26.3776L22.6367 34.9377C22.5718 35.045 22.4873 35.1391 22.3876 35.2151L21.1777 36.1379C20.8407 36.3949 20.3783 36.4116 20.0237 36.1795Z" stroke="#FFAE4F" stroke-width="2"/>
    <path d="M15.231 16.4001L21.0002 8.70007" stroke="#FFAE4F" stroke-width="2"/>
    <path d="M47.9229 29.2333C47.9229 29.2333 49.4613 23 49.8459 22.2667C50.2305 21.5334 50.9997 20.4333 52.1536 20.4333C53.3075 20.4334 53.6921 18.2333 53.6921 18.2333C54.4613 9.43335 42.1536 1.00002 32.9229 1C26.7628 0.999985 23.692 2.83338 20.9997 8.70002C18.3075 14.5667 23.6921 24.1 28.3074 25.2C28.3074 25.2 29.4612 23.7333 32.1536 25.2C34.8459 26.6667 33.6921 29.2333 33.6921 29.2333M47.9229 29.2333C48.3075 37.6667 29.8459 37.3 29.8459 37.3L33.6921 29.2333M47.9229 29.2333C42.1537 31.0667 33.6921 29.2333 33.6921 29.2333" stroke="#FFAE4F" stroke-width="2"/>
    <path d="M42.7624 19.9674C42.1802 20.7543 41.1594 21.2136 39.8449 21.1985C38.532 21.1835 37.0084 20.6863 35.6217 19.6604C34.235 18.6346 33.3138 17.3231 32.9153 16.0721C32.5163 14.8195 32.6568 13.709 33.239 12.9221C33.8211 12.1352 34.8419 11.6759 36.1564 11.6909C37.4693 11.706 38.9929 12.2032 40.3796 13.229C41.7663 14.2549 42.6875 15.5663 43.086 16.8174C43.485 18.07 43.3445 19.1804 42.7624 19.9674Z" stroke="#FFAE4F" stroke-width="2"/>
    <path d="M46.4609 21.6548C44.3807 25.0058 38.9782 25.8549 34.1974 22.8871C29.4165 19.9194 27.7806 14.7011 29.8607 11.35C31.9409 7.99901 37.3434 7.14987 42.1242 10.1176C46.9051 13.0854 48.5411 18.3037 46.4609 21.6548Z" stroke="#FFAE4F" stroke-width="2"/>
    <path d="M32.1538 15.6154C37.1538 16.7692 38.3077 17.1538 40.2307 21.7692" stroke="#FFAE4F" stroke-width="2"/>
</svg>
