<svg width="52" height="57" viewBox="0 0 52 57" fill="none" xmlns="http://www.w3.org/2000/svg">
    <path d="M35.8222 15.2H21.9556C21.6491 15.2 21.3552 15.0999 21.1385 14.9217C20.9218 14.7436 20.8 14.502 20.8 14.25V12.35H19.6444C18.7253 12.3509 17.8442 12.6514 17.1943 13.1857C16.5444 13.72 16.1788 14.4444 16.1778 15.2C16.1778 15.452 16.056 15.6936 15.8393 15.8717C15.6226 16.0499 15.3287 16.15 15.0222 16.15H-3.8147e-06V14.25H13.9828C14.2509 13.1779 14.9604 12.2146 15.9917 11.5224C17.023 10.8302 18.3131 10.4514 19.6444 10.45H20.4398C19.4852 9.93068 18.7019 9.22509 18.1598 8.39624C17.6178 7.56738 17.3338 6.64106 17.3333 5.7V3.325C17.3329 2.84812 17.4574 2.37676 17.6982 1.94294C17.9391 1.50912 18.2907 1.12301 18.7292 0.810837C19.1677 0.498667 19.6828 0.267756 20.2395 0.133794C20.7963 -0.000168175 21.3815 -0.0340426 21.9556 0.0344724V1.68046e-06H26.5778C27.8032 0.0011542 28.9781 0.40188 29.8446 1.11427C30.7112 1.82666 31.1986 2.79253 31.2 3.8V5.22051C31.5584 4.99999 31.8494 4.7139 32.0499 4.3849C32.2505 4.05589 32.3551 3.69301 32.3556 3.325C32.3556 2.44316 32.7817 1.59743 33.5401 0.973872C34.2986 0.350313 35.3273 1.68046e-06 36.4 1.68046e-06C37.4727 1.68046e-06 38.5014 0.350313 39.2599 0.973872C40.0183 1.59743 40.4444 2.44316 40.4444 3.325V5.7C40.4432 6.7814 40.0681 7.84024 39.3631 8.75317C38.658 9.6661 37.652 10.3955 36.4621 10.8565C36.7455 11.2338 36.9176 11.6603 36.9646 12.1021C37.0116 12.5438 36.9322 12.9885 36.7327 13.4004C37.4662 13.5654 38.1136 13.9237 38.5754 14.4205C39.0372 14.9172 39.2878 15.5248 39.2889 16.15V25.65C39.2895 26.3201 39.0015 26.9688 38.476 27.4811C42.5427 29.1648 45.9605 31.7442 48.3485 34.9314C50.7364 38.1187 52.0006 41.7886 52 45.5319V48.5687C51.9969 50.8041 50.9154 52.9471 48.9928 54.5277C47.0702 56.1084 44.4634 56.9975 41.7444 57H16.0333C13.3143 56.9975 10.7076 56.1084 8.78496 54.5277C6.86234 52.9471 5.78086 50.8041 5.77777 48.5687V45.5319C5.77753 41.9306 6.94764 38.3947 9.16707 35.2899C11.3865 32.185 14.5746 29.6241 18.4017 27.8719L14.5436 24.7H-3.8147e-06V22.8H15.0222C15.3287 22.8 15.6226 22.9001 15.8394 23.0782L20.1231 26.6H35.8222C36.1286 26.5997 36.4223 26.4995 36.6389 26.3214C36.8556 26.1433 36.9774 25.9019 36.9778 25.65V16.15C36.9774 15.8981 36.8556 15.6567 36.6389 15.4786C36.4223 15.3005 36.1286 15.2003 35.8222 15.2ZM26.5778 1.9H25.0312C25.2892 2.34508 25.4228 2.83197 25.4222 3.325C25.4231 3.95468 25.7277 4.55836 26.2693 5.00361C26.8109 5.44885 27.5452 5.6993 28.3111 5.7H28.8889V3.8C28.8882 3.29627 28.6445 2.81333 28.2112 2.45713C27.7779 2.10094 27.1905 1.90058 26.5778 1.9ZM38.1333 5.7V3.325C38.1333 2.94707 37.9507 2.58461 37.6257 2.31737C37.3006 2.05013 36.8597 1.9 36.4 1.9C35.9403 1.9 35.4994 2.05013 35.1743 2.31737C34.8493 2.58461 34.6667 2.94707 34.6667 3.325C34.6651 4.45841 34.1168 5.54503 33.1419 6.34647C32.1671 7.14791 30.8453 7.59873 29.4667 7.6H28.3111C26.9325 7.59873 25.6107 7.14791 24.6359 6.34647C23.661 5.54503 23.1127 4.45841 23.1111 3.325C23.1111 2.94707 22.9285 2.58461 22.6034 2.31737C22.2784 2.05013 21.8375 1.9 21.3778 1.9C20.9181 1.9 20.4772 2.05013 20.1521 2.31737C19.8271 2.58461 19.6444 2.94707 19.6444 3.325V5.7C19.6458 6.70747 20.1333 7.67335 20.9998 8.38573C21.8663 9.09812 23.0412 9.49885 24.2667 9.5H33.5111C34.7366 9.49885 35.9114 9.09812 36.778 8.38573C37.6445 7.67335 38.1319 6.70747 38.1333 5.7ZM23.1111 11.4V13.3H33.5111C33.8176 13.3 34.1115 13.1999 34.3282 13.0218C34.5449 12.8436 34.6667 12.602 34.6667 12.35C34.6667 12.098 34.5449 11.8564 34.3282 11.6783C34.1115 11.5001 33.8176 11.4 33.5111 11.4H23.1111ZM12.0031 35.1625C9.44826 38.2122 8.08301 41.8289 8.08889 45.5319V48.5687C8.09127 50.3003 8.92903 51.9605 10.4184 53.1849C11.9077 54.4093 13.9271 55.098 16.0333 55.1H41.7444C43.8507 55.098 45.87 54.4093 47.3594 53.1849C48.8487 51.9605 49.6865 50.3003 49.6889 48.5687V45.5319C49.6894 41.8584 48.3458 38.2697 45.8326 35.2323C43.3195 32.1948 39.7531 29.8491 35.597 28.5H33.9879C36.4101 30.4977 38.3292 32.8685 39.6354 35.4767C40.9416 38.0849 41.6092 40.8794 41.6 43.7H39.2889C39.2975 41.113 38.6818 38.5503 37.4776 36.1603C36.2734 33.7702 34.5045 31.6002 32.2733 29.776L30.7212 28.5H27.0565L25.5045 29.776C23.7666 31.204 22.3068 32.8436 21.1765 34.6372L19.1246 33.7628C20.3466 31.8245 21.9194 30.05 23.7895 28.5H22.1808C18.0545 29.8346 14.5094 32.1553 12.0031 35.1625Z" fill="#FFAE4F"/>
    <path d="M22.0349 45.75H20.0199C20.0201 44.0714 20.2263 42.3986 20.6343 40.765L22.5952 41.2036C22.2231 42.6935 22.0351 44.2191 22.0349 45.75Z" fill="#FFAE4F"/>
</svg>
