<svg width="61" height="57" viewBox="0 0 61 57" fill="none" xmlns="http://www.w3.org/2000/svg">
    <path d="M60.7774 17.6738C60.3298 16.1128 59.2584 14.808 57.7605 14L50.1815 9.91115C49.6118 9.6039 48.8831 9.78614 48.5541 10.3186C48.225 10.8511 48.4203 11.5318 48.9901 11.8393L56.5691 15.9281C57.5158 16.4389 58.1928 17.2634 58.4758 18.2499C58.7586 19.2366 58.6135 20.267 58.0669 21.1516L52.0523 30.8862V22.9488C52.0523 20.9979 50.3536 19.4106 48.2658 19.4106C47.7701 19.4106 47.2964 19.5001 46.862 19.6626V16.6397C46.862 14.6888 45.1633 13.1015 43.0755 13.1015C42.5579 13.1015 42.0645 13.1989 41.6147 13.3754C41.3031 11.7156 39.7492 10.4504 37.885 10.4504C36.0209 10.4504 34.4671 11.7156 34.1554 13.3754C33.7057 13.199 33.2121 13.1015 32.6947 13.1015C30.6068 13.1015 28.9082 14.6888 28.9082 16.6397L28.9079 30.1117L27.5856 28.1829C26.5459 26.6661 24.5385 25.9928 22.704 26.5461C20.5118 27.207 19.2905 29.3456 19.9236 31.4152L20.0227 31.739C20.543 33.4398 21.2525 35.0796 22.13 36.6331L13.9217 32.2048C11.9675 31.1504 11.2956 28.8072 12.4238 26.9811L26.5362 4.14109C27.0828 3.2565 27.9652 2.62374 29.021 2.35934C30.0768 2.09483 31.1796 2.23065 32.1263 2.74141L39.7058 6.83036C40.2757 7.13795 41.0043 6.95549 41.3332 6.42291C41.6623 5.89044 41.467 5.20969 40.8972 4.90222L33.3177 0.813264C31.8198 0.00526994 30.0748 -0.209587 28.4042 0.208771C26.7337 0.627018 25.3373 1.62827 24.4726 3.02784L23.7198 4.24618C20.8088 3.46056 17.7989 3.03263 14.7579 2.97541C14.7497 2.9753 14.7416 2.97519 14.7335 2.97519C14.0867 2.97519 13.556 3.459 13.5429 4.06606C13.5296 4.68068 14.0522 5.1891 14.7101 5.20146C17.3456 5.251 19.9558 5.59955 22.4899 6.23677L14.5995 19.0072C12.8873 18.4571 11.1007 18.1623 9.27515 18.1319C8.61585 18.1196 8.07449 18.6104 8.0627 19.225C8.0509 19.8399 8.57475 20.3469 9.23262 20.358C10.6508 20.3817 12.0414 20.5901 13.3822 20.9774L10.3606 25.8678C8.57546 28.757 9.63864 32.4647 12.7306 34.1328L25.0523 40.7802C26.4742 42.4281 28.1137 43.9146 29.9381 45.1929L30.0002 57.0001H32.5002L32.3209 44.6286C32.3209 44.2693 32.1351 43.9318 31.8223 43.7229C27.2391 40.6619 23.8623 36.1885 22.3138 31.1271L22.2147 30.8032C21.9367 29.8944 22.473 28.9551 23.4356 28.665C24.241 28.4223 25.1229 28.7178 25.5794 29.3837L29.0963 34.5139C29.3816 34.93 29.9266 35.1206 30.4342 34.9818C30.942 34.843 31.2908 34.4078 31.2908 33.9134V29.3026C31.2909 29.2952 31.291 29.2879 31.291 29.2805V16.6398C31.291 15.9166 31.9208 15.3281 32.6948 15.3281C33.4689 15.3281 34.0986 15.9166 34.0986 16.6398V27.0947C34.0986 27.7094 34.632 28.2079 35.29 28.2079C35.948 28.2079 36.4814 27.7094 36.4814 27.0947V13.9886C36.4814 13.2654 37.1111 12.6769 37.8851 12.6769C38.6593 12.6769 39.2889 13.2654 39.2889 13.9886V27.0947C39.2889 27.7094 39.8223 28.2079 40.4803 28.2079C41.1383 28.2079 41.6717 27.7094 41.6717 27.0947V16.6398C41.6717 15.9166 42.3014 15.3281 43.0755 15.3281C43.8495 15.3281 44.4792 15.9166 44.4792 16.6398V27.0947C44.4792 27.7094 45.0126 28.2079 45.6706 28.2079C46.3286 28.2079 46.862 27.7094 46.862 27.0947V22.949C46.862 22.2258 47.4917 21.6373 48.2658 21.6373C49.0398 21.6373 49.6696 22.2258 49.6696 22.949V32.0743C49.6696 36.447 47.7691 40.7257 44.4554 43.8132C44.2313 44.022 44.1053 44.3057 44.1053 44.6015V57.0001H46.488V45.0555C49.0775 42.5228 50.8248 39.4296 51.5986 36.0734L60.1304 22.2651C60.9954 20.8654 61.2251 19.2348 60.7774 17.6738Z" fill="#FFAE4F"/>
    <path d="M1.19257 7.58336C1.34459 7.58336 1.49923 7.55597 1.64839 7.49809C4.0447 6.56986 6.56397 5.91271 9.13625 5.54478C9.78674 5.45183 10.2333 4.88374 10.1337 4.27602C10.0342 3.66818 9.42647 3.25161 8.77587 3.34401C6.01416 3.73887 3.30915 4.44456 0.735918 5.44147C0.128082 5.67692 -0.160348 6.32817 0.0916264 6.89615C0.28165 7.32475 0.725077 7.58336 1.19257 7.58336Z" fill="#FFAE4F"/>
    <path d="M1.19222 14.8425C1.34328 14.8425 1.49685 14.8154 1.64517 14.7583C5.36343 13.3285 9.44661 12.816 13.4533 13.2764C14.1065 13.3524 14.7009 12.9177 14.7812 12.3074C14.8615 11.6972 14.3972 11.1416 13.7441 11.0666C9.33188 10.5593 4.83435 11.1242 0.738304 12.6995C0.129873 12.9335 -0.160464 13.584 0.0899618 14.1526C0.279389 14.5825 0.723651 14.8425 1.19222 14.8425Z" fill="#FFAE4F"/>
    <path d="M2.96199 19.1283C2.15746 19.4054 1.36865 19.7417 0.617377 20.1279C0.0408737 20.4243 -0.169403 21.1011 0.147739 21.6398C0.364688 22.0084 0.772255 22.2168 1.19269 22.2168C1.38676 22.2168 1.58381 22.1723 1.76586 22.0788C2.41313 21.7461 3.0928 21.4564 3.78606 21.2176C4.40343 21.0049 4.7195 20.3649 4.49183 19.7879C4.26427 19.2112 3.57924 18.9156 2.96199 19.1283Z" fill="#FFAE4F"/>
    <path d="M44.9439 9.48441C45.2572 9.48441 45.5634 9.36529 45.7862 9.15822C46.0078 8.95115 46.1353 8.66392 46.1353 8.37112C46.1353 8.07721 46.0078 7.78998 45.7862 7.58291C45.5634 7.37595 45.2571 7.25671 44.9439 7.25671C44.6305 7.25671 44.3231 7.37584 44.1015 7.58291C43.8787 7.79109 43.7524 8.07721 43.7524 8.37112C43.7524 8.66392 43.8787 8.95003 44.1015 9.15822C44.3231 9.36529 44.6292 9.48441 44.9439 9.48441Z" fill="#FFAE4F"/>
</svg>
