<svg width="22" height="22" viewBox="0 0 22 22" fill="none" xmlns="http://www.w3.org/2000/svg">
    <path d="M15.125 0H6.875C3.07862 0 0 3.07862 0 6.875V15.125C0 18.9214 3.07862 22 6.875 22H15.125C18.9214 22 22 18.9214 22 15.125V6.875C22 3.07862 18.9214 0 15.125 0ZM19.9375 15.125C19.9375 17.7787 17.7787 19.9375 15.125 19.9375H6.875C4.22125 19.9375 2.0625 17.7787 2.0625 15.125V6.875C2.0625 4.22125 4.22125 2.0625 6.875 2.0625H15.125C17.7787 2.0625 19.9375 4.22125 19.9375 6.875V15.125Z" fill="url(#paint0_linear_2_534)"/>
    <path d="M11 5.5C7.96262 5.5 5.5 7.96262 5.5 11C5.5 14.0374 7.96262 16.5 11 16.5C14.0374 16.5 16.5 14.0374 16.5 11C16.5 7.96262 14.0374 5.5 11 5.5ZM11 14.4375C9.10525 14.4375 7.5625 12.8948 7.5625 11C7.5625 9.10388 9.10525 7.5625 11 7.5625C12.8948 7.5625 14.4375 9.10388 14.4375 11C14.4375 12.8948 12.8948 14.4375 11 14.4375Z" fill="url(#paint1_linear_2_534)"/>
    <path d="M16.9583 5.49992C17.2115 5.49992 17.4167 5.29472 17.4167 5.04159C17.4167 4.78845 17.2115 4.58325 16.9583 4.58325C16.7052 4.58325 16.5 4.78845 16.5 5.04159C16.5 5.29472 16.7052 5.49992 16.9583 5.49992Z" fill="url(#paint2_linear_2_534)"/>
    <defs>
    <linearGradient id="paint0_linear_2_534" x1="2.01389" y1="19.9862" x2="19.9861" y2="2.01376" gradientUnits="userSpaceOnUse">
    <stop stop-color="#FFC107"/>
    <stop offset="0.507" stop-color="#F44336"/>
    <stop offset="0.99" stop-color="#9C27B0"/>
    </linearGradient>
    <linearGradient id="paint1_linear_2_534" x1="7.11102" y1="14.889" x2="14.889" y2="7.11102" gradientUnits="userSpaceOnUse">
    <stop stop-color="#FFC107"/>
    <stop offset="0.507" stop-color="#F44336"/>
    <stop offset="0.99" stop-color="#9C27B0"/>
    </linearGradient>
    <linearGradient id="paint2_linear_2_534" x1="16.6343" y1="5.36573" x2="17.2824" y2="4.71753" gradientUnits="userSpaceOnUse">
    <stop stop-color="#FFC107"/>
    <stop offset="0.507" stop-color="#F44336"/>
    <stop offset="0.99" stop-color="#9C27B0"/>
    </linearGradient>
    </defs>
</svg>
