<svg width="70" height="70" viewBox="0 0 70 70" fill="none" xmlns="http://www.w3.org/2000/svg">
    <path d="M44.1111 48.1852H21.1111C20.6406 48.1852 20.2593 47.8038 20.2593 47.3333C20.2593 46.8629 20.6406 46.4815 21.1111 46.4815H44.1111C44.5816 46.4815 44.963 46.8629 44.963 47.3333C44.963 47.8038 44.5816 48.1852 44.1111 48.1852Z" stroke="#FFAE4F"/>
    <path d="M19.4074 22.0344V38.8148C19.4074 39.7557 18.6446 40.5185 17.7037 40.5185C16.7628 40.5185 16 39.7557 16 38.8148V20.399C16 19.6727 16.3938 19.0035 17.0287 18.6507L22.9083 15.3843C23.374 15.1256 23.9452 15.1487 24.3885 15.4442C25.2483 16.0174 25.2297 17.287 24.3534 17.8347L20.3474 20.3384C19.7626 20.7039 19.4074 21.3448 19.4074 22.0344Z" stroke="#FFAE4F"/>
    <path d="M24.7254 9.92113L21.7272 11.7662C21.1498 12.1215 20.9659 12.8752 21.3147 13.4566C21.6708 14.0501 22.4445 14.2361 23.0315 13.8692L24.0212 13.2506C24.8109 12.7571 25.8369 12.8739 26.4954 13.5324L27.999 15.0361C28.8596 15.8967 28.7585 17.32 27.7848 18.0503L25.4567 19.7964C24.9236 20.1962 24.779 20.9342 25.1219 21.5056C25.4934 22.1249 26.2986 22.3227 26.9148 21.9461L31.5149 19.1349C32.5466 18.5044 32.7873 17.1097 32.0265 16.17L27.3281 10.366C26.6956 9.58475 25.5815 9.3943 24.7254 9.92113Z" stroke="#FFAE4F"/>
    <path d="M32.1801 20.4052L28.2291 23.1152C27.5356 23.5908 27.2138 24.4494 27.4236 25.2637L27.5955 25.9306C27.8313 26.8455 28.6752 27.4706 29.6191 27.4296L38.1874 27.057C38.9214 27.0251 39.5 26.4208 39.5 25.6861C39.5 25.2542 39.2966 24.8474 38.9511 24.5883L37.7534 23.69C37.5855 23.5641 37.4385 23.4126 37.3178 23.241L36.8684 22.6025C36.5948 22.2136 36.1915 21.9349 35.7309 21.8165L35.1156 21.6582C34.7246 21.5577 34.3963 21.2926 34.2158 20.9315C33.8374 20.1748 32.8778 19.9267 32.1801 20.4052Z" fill="#FFAE4F"/>
    <path d="M46.6667 37.8148V33.8519C46.6667 33.2996 47.1144 32.8519 47.6667 32.8519H55.037C55.5893 32.8519 56.037 33.2996 56.037 33.8519V47.1204C56.037 47.4732 55.751 47.7593 55.3981 47.7593C55.0453 47.7593 54.7593 47.4732 54.7593 47.1204C54.7593 46.7675 54.4732 46.4815 54.1204 46.4815H48.5833C48.2305 46.4815 47.9444 46.7675 47.9444 47.1204C47.9444 47.4732 47.6584 47.7593 47.3056 47.7593C46.9527 47.7593 46.6667 47.4732 46.6667 47.1204V43.2222C46.6667 42.6699 47.1144 42.2222 47.6667 42.2222H48.6481C49.2004 42.2222 49.6481 41.7745 49.6481 41.2222V39.8148C49.6481 39.2625 49.2004 38.8148 48.6481 38.8148H47.6667C47.1144 38.8148 46.6667 38.3671 46.6667 37.8148Z" stroke="#FFAE4F"/>
    <path d="M50.9259 36.5759V35.5556C50.9259 35.0033 51.3736 34.5556 51.9259 34.5556H55.037C55.5893 34.5556 56.037 35.0033 56.037 35.5556V38.65C56.037 39.4487 55.1469 39.9251 54.4823 39.4821L51.3712 37.408C51.093 37.2225 50.9259 36.9103 50.9259 36.5759Z" stroke="#FFAE4F"/>
    <path d="M27.0741 49.8889C28.015 49.8889 28.7778 50.6517 28.7778 51.5926C28.7778 52.5335 28.015 53.2963 27.0741 53.2963C26.1331 53.2963 25.3704 52.5335 25.3704 51.5926C25.3704 50.6517 26.1331 49.8889 27.0741 49.8889Z" stroke="#FFAE4F"/>
    <path d="M27.0741 48.1852C28.9559 48.1852 30.4815 49.7107 30.4815 51.5926C30.4815 53.4745 28.9559 55 27.0741 55C25.1922 55 23.6667 53.4745 23.6667 51.5926C23.6667 49.7107 25.1922 48.1852 27.0741 48.1852Z" stroke="#FFAE4F"/>
    <path d="M51.7778 48.1852C53.6596 48.1852 55.1852 49.7107 55.1852 51.5926C55.1852 53.4745 53.6596 55 51.7778 55C49.8959 55 48.3704 53.4745 48.3704 51.5926C48.3704 49.7107 49.8959 48.1852 51.7778 48.1852Z" stroke="#FFAE4F"/>
    <path d="M51.7778 49.8889C52.7187 49.8889 53.4815 50.6517 53.4815 51.5926C53.4815 52.5335 52.7187 53.2963 51.7778 53.2963C50.8368 53.2963 50.0741 52.5335 50.0741 51.5926C50.0741 50.6517 50.8368 49.8889 51.7778 49.8889Z" stroke="#FFAE4F"/>
    <path d="M21.1111 42.7778V30.5926C21.1111 29.488 22.0065 28.5926 23.1111 28.5926H39.5556C40.6601 28.5926 41.5556 29.488 41.5556 30.5926V42.7778C41.5556 43.8823 40.6601 44.7778 39.5556 44.7778H23.1111C22.0065 44.7778 21.1111 43.8823 21.1111 42.7778Z" stroke="#FFAE4F"/>
    <path d="M26.2222 41.7963V31.5741C26.2222 31.3388 26.0315 31.1481 25.7963 31.1481C25.5611 31.1481 25.3704 31.3388 25.3704 31.5741V41.7963C25.3704 42.0315 25.5611 42.2222 25.7963 42.2222C26.0315 42.2222 26.2222 42.0315 26.2222 41.7963Z" stroke="#FFAE4F"/>
    <path d="M31.3333 41.7963V31.5741C31.3333 31.3388 31.1426 31.1481 30.9074 31.1481C30.6722 31.1481 30.4815 31.3388 30.4815 31.5741V41.7963C30.4815 42.0315 30.6722 42.2222 30.9074 42.2222C31.1426 42.2222 31.3333 42.0315 31.3333 41.7963Z" stroke="#FFAE4F"/>
    <path d="M36.4444 41.7963V31.5741C36.4444 31.3388 36.2537 31.1481 36.0185 31.1481C35.7833 31.1481 35.5926 31.3388 35.5926 31.5741V41.7963C35.5926 42.0315 35.7833 42.2222 36.0185 42.2222C36.2537 42.2222 36.4444 42.0315 36.4444 41.7963Z" stroke="#FFAE4F"/>
    <path d="M59.0416 59.0416C45.7638 72.3195 24.2362 72.3195 10.9584 59.0416C-2.31946 45.7638 -2.31946 24.2362 10.9584 10.9584C24.2362 -2.31946 45.7638 -2.31946 59.0416 10.9584C72.3195 24.2362 72.3195 45.7638 59.0416 59.0416Z" stroke="#FFAE4F" stroke-width="2"/>
</svg>
