<svg width="18" height="18" viewBox="0 0 18 18" fill="none" xmlns="http://www.w3.org/2000/svg">
    <path d="M17.3911 7.72186C17.466 7.72186 17.5267 7.78255 17.5267 7.85741V9.28067C17.5267 9.81337 17.4772 10.3342 17.3823 10.8395C16.6482 14.7641 13.1906 17.7301 9.04624 17.7015C4.39594 17.6695 0.674296 13.9121 0.684592 9.26169C0.694822 4.61968 4.4612 0.859619 9.10561 0.859619C11.381 0.859619 13.4456 1.76232 14.9613 3.22863C15.0161 3.28156 15.0175 3.3688 14.9636 3.42261L12.9501 5.43613C12.8983 5.48797 12.8145 5.48932 12.7614 5.43876C11.8101 4.5332 10.5229 3.97725 9.10561 3.97725C6.17893 3.97725 3.82219 6.31725 3.80232 9.24386C3.78235 12.1897 6.16446 14.5841 9.10561 14.5841C11.492 14.5841 13.5103 13.0076 14.1759 10.8395H9.24117C9.1663 10.8395 9.10561 10.7788 9.10561 10.7039V7.85738C9.10561 7.78251 9.1663 7.72182 9.24117 7.72182H17.3911V7.72186Z" fill="#2196F3"/>
    <path d="M17.391 7.7218H16.3744C16.4493 7.7218 16.51 7.78249 16.51 7.85736V9.28062C16.51 9.81332 16.4605 10.3342 16.3656 10.8394C15.6652 14.5836 12.4861 17.4551 8.59668 17.6865C8.7455 17.6953 8.8953 17.7004 9.04615 17.7014C13.1906 17.73 16.6481 14.764 17.3822 10.8394C17.4771 10.3342 17.5266 9.81332 17.5266 9.28062V7.85733C17.5266 7.78249 17.4659 7.7218 17.391 7.7218Z" fill="#1E88E5"/>
    <path d="M4.28895 7.05968L1.73145 5.21179C3.16625 2.61669 5.93112 0.859619 9.10605 0.859619C11.3815 0.859619 13.446 1.76232 14.9618 3.22863C15.0165 3.28156 15.0179 3.3688 14.9641 3.42261L12.9506 5.43613C12.8988 5.48788 12.8151 5.48949 12.7621 5.43903C11.8107 4.5333 10.5235 3.97728 9.10605 3.97728C6.97013 3.97728 5.12901 5.23992 4.28895 7.05968Z" fill="#F44336"/>
    <path d="M3.5498 6.52624L4.28813 7.0597C5.0549 5.39871 6.65582 4.20246 8.55352 4.00624C8.5678 4.0047 8.58152 4.00282 8.59606 4.00144C8.42905 3.98558 8.25981 3.97729 8.08862 3.97729C6.15911 3.97729 4.47753 4.9945 3.5498 6.52624Z" fill="#E53935"/>
    <path d="M13.9452 3.22863C13.9999 3.28156 14.0013 3.3688 13.9475 3.42265L12.3132 5.05695C12.4697 5.17603 12.6196 5.3034 12.7618 5.4388C12.8149 5.48936 12.8987 5.48801 12.9506 5.43617L14.9641 3.42265C15.0179 3.3688 15.0165 3.28159 14.9618 3.22863C13.446 1.76232 11.3815 0.859619 9.10605 0.859619C8.93529 0.859619 8.76588 0.86531 8.59766 0.875343C10.6713 0.998863 12.5431 1.87232 13.9452 3.22863Z" fill="#E53935"/>
    <path d="M15.2832 15.0036C13.7454 16.6631 11.5467 17.7018 9.10582 17.7018C5.80891 17.7018 2.95457 15.8071 1.57227 13.047L4.18329 11.2577C4.96681 13.2073 6.87569 14.5841 9.10582 14.5841C10.5054 14.5841 11.7782 14.0419 12.7257 13.1561L15.2832 15.0036Z" fill="#4CAF50"/>
    <path d="M4.18302 11.2577L3.41309 11.7853C4.30733 13.4512 6.06585 14.5841 8.08891 14.5841C8.25999 14.5841 8.4291 14.5757 8.59605 14.5599C6.58785 14.3684 4.90611 13.057 4.18302 11.2577Z" fill="#43A047"/>
    <path d="M9.10567 17.7017C11.5466 17.7017 13.7452 16.663 15.283 15.0036L14.6566 14.551C13.2127 16.3481 11.0466 17.5402 8.59863 17.6864C8.7664 17.6964 8.93541 17.7017 9.10567 17.7017Z" fill="#43A047"/>
    <path d="M3.80223 9.28067C3.80223 9.97943 3.93743 10.6467 4.18312 11.2577L1.57207 13.0469C1.00414 11.9137 0.68457 10.6345 0.68457 9.28067C0.68457 7.80489 1.06411 6.41785 1.73102 5.21179L4.28852 7.05969C3.97641 7.73505 3.80223 8.48771 3.80223 9.28067Z" fill="#FFC107"/>
    <path d="M3.41275 11.7853L4.18268 11.2577C3.93699 10.6467 3.80179 9.97944 3.80179 9.28069C3.80179 8.48773 3.97597 7.73506 4.28808 7.0597L3.54976 6.52625C3.07031 7.31786 2.79206 8.24677 2.78528 9.24391C2.77903 10.1635 3.00689 11.0293 3.41275 11.7853Z" fill="#FFB300"/>
</svg>
