<svg width="70" height="70" viewBox="0 0 70 70" fill="none" xmlns="http://www.w3.org/2000/svg">
    <path d="M46.2571 20.207C46.2571 17.4206 44.4337 13 39.5409 13C37.5306 13 35.8396 13.9477 34.5 15.8211C33.1604 13.9477 31.4693 13 29.4591 13C24.5662 13 22.7429 17.4206 22.7429 20.207C22.7429 25.0112 26.4924 28.0163 31.6146 32.3963C32.3672 33.0398 33.1455 33.7053 33.9753 34.4252C34.1258 34.5558 34.3129 34.6211 34.5 34.6211C34.6872 34.6211 34.8742 34.5558 35.0248 34.4252C35.8545 33.7053 36.6328 33.0398 37.3855 32.3963C42.748 27.8108 46.2571 24.9096 46.2571 20.207ZM34.5 32.7614C33.8601 32.2091 33.2498 31.6873 32.6554 31.1789C27.2964 26.5966 24.3445 24.0724 24.3445 20.207C24.3445 17.585 26.0599 14.6016 29.4591 14.6016C31.2331 14.6016 32.8547 15.6234 34 17.7188C34.1404 17.9756 34.5 18.1322 34.5 18.1322C34.5 18.1322 34.8596 17.9756 35 17.7188C36.1453 15.6234 37.767 14.6016 39.5409 14.6016C42.8927 14.6016 44.6555 17.5407 44.6555 20.207C44.6555 24.0724 41.7036 26.5966 36.3446 31.179C35.7502 31.6873 35.1399 32.2091 34.5 32.7614Z" fill="#FFAE4F"/>
    <path d="M41 22C41 20.4535 39.9919 18 37.2869 18C36.1755 18 35.2406 18.526 34.5 19.5657C33.7594 18.526 32.8244 18 31.7131 18C29.008 18 28 20.4535 28 22C28 24.6664 30.0729 26.3342 32.9047 28.7652C33.3209 29.1224 33.7511 29.4917 34.2099 29.8913C34.2931 29.9638 34.3965 30 34.5 30C34.6035 30 34.7069 29.9638 34.7901 29.8913C35.2489 29.4917 35.6791 29.1224 36.0952 28.7652C39.06 26.2202 41 24.61 41 22Z" fill="#FFAE4F"/>
    <path d="M19.7543 44.3998L23.6094 46.327V50.6367C23.6094 51.0789 23.968 51.4375 24.4102 51.4375H32.8984C33.3406 51.4375 33.6992 51.0789 33.6992 50.6367V40.1825C33.6992 37.7291 31.8588 35.6945 29.4242 35.4505L29.3587 35.4434C27.9496 35.3022 25.4545 34.3383 24.4693 33.3532L22.6709 31.5555C22.0658 30.9505 21.2616 30.6172 20.4062 30.6172V24.2109C20.4062 22.4447 18.9693 21.0078 17.2031 21.0078C15.4369 21.0078 14 22.4447 14 24.2109V35.0887C14 39.0297 16.226 42.6352 19.7543 44.3998ZM15.6016 24.2109C15.6016 23.3278 16.32 22.6094 17.2031 22.6094C18.0862 22.6094 18.8047 23.3278 18.8047 24.2109V31.0465C17.8281 31.6112 17.2031 32.6641 17.2031 33.8203C17.2031 34.6756 17.5364 35.4799 18.1416 36.0849L22.2424 40.1865C22.555 40.4993 23.062 40.4993 23.3748 40.1866C23.6875 39.874 23.6876 39.3669 23.3749 39.0541L19.2741 34.9525C18.9713 34.6498 18.8047 34.2478 18.8047 33.8203C18.8047 33.1425 19.2337 32.5355 19.8723 32.31C19.8724 32.31 19.8725 32.3099 19.8726 32.3098C19.8728 32.3097 19.873 32.3097 19.8732 32.3096C20.4255 32.1136 21.0807 32.2304 21.5386 32.6882L23.3369 34.4859C25.1936 36.3426 29.2502 37.0412 29.2582 37.0435C30.8769 37.2057 32.0976 38.5553 32.0976 40.1825V49.8359H25.2109V45.832C25.2109 45.5287 25.0394 45.2514 24.7682 45.1158L20.4705 42.9673C17.4673 41.4653 15.6016 38.4464 15.6016 35.0887V24.2109Z" fill="#FFAE4F"/>
    <path d="M50.945 44.1107L47.0898 46.0379V50.3477C47.0898 50.7898 46.7313 51.1484 46.2891 51.1484H37.8008C37.3586 51.1484 37 50.7898 37 50.3477V39.8935C37 37.44 38.8404 35.4055 41.275 35.1614L41.3405 35.1544C42.7496 35.0131 45.2447 34.0493 46.2299 33.0642L48.0283 31.2665C48.6334 30.6614 49.4377 30.3281 50.293 30.3281V23.9219C50.293 22.1557 51.7299 20.7188 53.4961 20.7188C55.2623 20.7188 56.6992 22.1557 56.6992 23.9219V34.7997C56.6992 38.7407 54.4732 42.3462 50.945 44.1107ZM55.0977 23.9219C55.0977 23.0388 54.3792 22.3203 53.4961 22.3203C52.613 22.3203 51.8945 23.0388 51.8945 23.9219V30.7574C52.8712 31.3221 53.4961 32.375 53.4961 33.5312C53.4961 34.3866 53.1628 35.1908 52.5577 35.7959L48.4569 39.8975C48.1442 40.2102 47.6372 40.2102 47.3244 39.8975C47.0117 39.5849 47.0116 39.0779 47.3243 38.7651L51.4251 34.6634C51.7279 34.3608 51.8945 33.9587 51.8945 33.5312C51.8945 32.8535 51.4656 32.2465 50.8269 32.0209C50.8268 32.0209 50.8267 32.0208 50.8266 32.0207C50.8264 32.0207 50.8262 32.0207 50.826 32.0206C50.2737 31.8245 49.6185 31.9413 49.1607 32.3992L47.3623 34.1969C45.5056 36.0536 41.4491 36.7522 41.441 36.7544C39.8223 36.9166 38.6016 38.2662 38.6016 39.8935V49.5469H45.4884V45.543C45.4884 45.2396 45.6598 44.9623 45.931 44.8267L50.2287 42.6783C53.2319 41.1762 55.0977 38.1574 55.0977 34.7997V23.9219Z" fill="#FFAE4F"/>
    <path d="M22 57V53H34V57H22Z" fill="#FFAE4F" stroke="#FFAE4F"/>
    <path d="M49 57V53H37V57H49Z" fill="#FFAE4F" stroke="#FFAE4F"/>
    <path d="M59.0416 59.0416C45.7638 72.3195 24.2362 72.3195 10.9584 59.0416C-2.31946 45.7638 -2.31946 24.2362 10.9584 10.9584C24.2362 -2.31946 45.7638 -2.31946 59.0416 10.9584C72.3195 24.2362 72.3195 45.7638 59.0416 59.0416Z" stroke="#FFAE4F" stroke-width="2"/>
</svg>
