<svg width="70" height="70" viewBox="0 0 70 70" fill="none" xmlns="http://www.w3.org/2000/svg">
    <path d="M59.0416 59.0416C45.7638 72.3195 24.2362 72.3195 10.9584 59.0416C-2.31946 45.7638 -2.31946 24.2362 10.9584 10.9584C24.2362 -2.31946 45.7638 -2.31946 59.0416 10.9584C72.3195 24.2362 72.3195 45.7638 59.0416 59.0416Z" stroke="#FFAE4F" stroke-width="2"/>
    <path d="M14.4082 53V18.0817C14.4082 17.5294 14.8559 17.0817 15.4082 17.0817H31.3674C31.9197 17.0817 32.3674 17.5294 32.3674 18.0817V53" stroke="#FFAE4F"/>
    <path d="M14 53H32.7755" stroke="#FFAE4F"/>
    <path d="M16.041 24.2449V22.9796C16.041 22.4273 16.4887 21.9796 17.041 21.9796H22.388C22.9402 21.9796 23.388 22.4273 23.388 22.9796V24.2449C23.388 24.7972 22.9402 25.2449 22.388 25.2449H17.041C16.4887 25.2449 16.041 24.7972 16.041 24.2449Z" fill="#FFAE4F"/>
    <path d="M25.8369 31.5919V27.8776C25.8369 27.3253 26.2846 26.8776 26.8369 26.8776H28.9186C29.4709 26.8776 29.9186 27.3253 29.9186 27.8776V31.5919C29.9186 32.1441 29.4709 32.5919 28.9186 32.5919H26.8369C26.2846 32.5919 25.8369 32.1441 25.8369 31.5919Z" fill="#FFAE4F"/>
    <path d="M16.8573 34.8572V30.9592C16.8573 30.5084 17.2228 30.1429 17.6737 30.1429H19.1226C19.6749 30.1429 20.1226 30.5906 20.1226 31.1429V34.8572C20.1226 35.4094 19.6749 35.8572 19.1226 35.8572H17.8573C17.3051 35.8572 16.8573 35.4095 16.8573 34.8572Z" fill="#FFAE4F"/>
    <path d="M23.388 39.347V37.6735C23.388 37.1212 23.8357 36.6735 24.388 36.6735H28.9186C29.4709 36.6735 29.9186 37.1212 29.9186 37.6735V39.347C29.9186 39.8992 29.4709 40.347 28.9186 40.347H24.388C23.8357 40.347 23.388 39.8992 23.388 39.347Z" fill="#FFAE4F"/>
    <path d="M16.8573 45.4694V44.2041C16.8573 43.6518 17.3051 43.2041 17.8573 43.2041H21.5716C22.1239 43.2041 22.5716 43.6518 22.5716 44.2041V45.6531C22.5716 46.1039 22.2061 46.4694 21.7553 46.4694H17.8573C17.3051 46.4694 16.8573 46.0217 16.8573 45.4694Z" fill="#FFAE4F"/>
    <path d="M26 14V16C26 16.5523 26.4477 17 27 17C27.5523 17 28 16.5523 28 16V14C28 13.4477 27.5523 13 27 13C26.4477 13 26 13.4477 26 14Z" fill="#FFAE4F"/>
    <path d="M34 52V40.0294C34 39.4771 34.4477 39.0294 35 39.0294H56C56.5523 39.0294 57 39.4771 57 40.0294V52C57 52.5523 56.5523 53 56 53H35C34.4477 53 34 52.5523 34 52Z" stroke="#FFAE4F"/>
    <path d="M34 39.0294L44.8078 28.6639C45.1947 28.2928 45.8053 28.2928 46.1922 28.6639L57 39.0294" stroke="#FFAE4F"/>
    <path d="M35.9712 43.9118V42.2354C35.9712 41.6831 36.4189 41.2354 36.9712 41.2354H41.5426C42.0949 41.2354 42.5426 41.6831 42.5426 42.2354V43.9118C42.5426 44.4641 42.0949 44.9118 41.5426 44.9118H36.9712C36.4189 44.9118 35.9712 44.4641 35.9712 43.9118Z" stroke="#FFAE4F"/>
    <path d="M46 53H45C44.4477 53 44 52.5523 44 52V48C44 47.4477 44.4477 47 45 47H46C46.5523 47 47 47.4477 47 48V52C47 52.5523 46.5523 53 46 53Z" stroke="#FFAE4F"/>
    <path d="M48.457 43.9118V42.2354C48.457 41.6831 48.9047 41.2354 49.457 41.2354H54.0285C54.5807 41.2354 55.0285 41.6831 55.0285 42.2354V43.9118C55.0285 44.4641 54.5807 44.9118 54.0285 44.9118H49.457C48.9047 44.9118 48.457 44.4641 48.457 43.9118Z" stroke="#FFAE4F"/>
    <path d="M55 37V21C55 20.4477 54.5523 20 54 20H36C35.4477 20 35 20.4477 35 21V35.7046C35 36.5849 36.0552 37.0357 36.6913 36.4272L45.5 28" stroke="#FFAE4F"/>
    <path d="M40 33V31C40 30.4477 40.4477 30 41 30H43.5M52 27V28C52 28.5523 51.5523 29 51 29H50C49.4477 29 49 28.5523 49 28V27C49 26.4477 49.4477 26 50 26H51C51.5523 26 52 26.4477 52 27ZM40 24V25C40 25.5523 39.5523 26 39 26H38C37.4477 26 37 25.5523 37 25V24C37 23.4477 37.4477 23 38 23H39C39.5523 23 40 23.4477 40 24Z" stroke="#FFAE4F"/>
</svg>
