<svg width="30" height="30" viewBox="0 0 30 30" fill="none" xmlns="http://www.w3.org/2000/svg">
    <circle cx="15" cy="15" r="15" fill="#FF2E2E"/>
    <g clip-path="url(#clip0_2_323)">
    <path d="M15.9162 15.0083L19.81 11.1144C20.0634 10.8611 20.0634 10.4516 19.81 10.1983C19.5567 9.94502 19.1472 9.94502 18.8939 10.1983L14.9999 14.0922L11.1061 10.1983C10.8527 9.94502 10.4433 9.94502 10.1901 10.1983C9.93665 10.4516 9.93665 10.8611 10.1901 11.1144L14.0839 15.0083L10.1901 18.9022C9.93665 19.1555 9.93665 19.565 10.1901 19.8183C10.3163 19.9447 10.4822 20.0081 10.6481 20.0081C10.8139 20.0081 10.9798 19.9447 11.1061 19.8183L14.9999 15.9244L18.8939 19.8183C19.0202 19.9447 19.1861 20.0081 19.3519 20.0081C19.5178 20.0081 19.6836 19.9447 19.81 19.8183C20.0634 19.565 20.0634 19.1555 19.81 18.9022L15.9162 15.0083Z" fill="white"/>
    </g>
    <defs>
    <clipPath id="clip0_2_323">
    <rect width="10" height="10" fill="white" transform="translate(10 10)"/>
    </clipPath>
    </defs>
</svg>
