<svg width="22" height="22" viewBox="0 0 22 22" fill="none" xmlns="http://www.w3.org/2000/svg">
    <path d="M15.8111 21.9997C15.1009 21.9997 14.3968 21.8741 13.7083 21.624C10.6749 20.522 7.85934 18.7273 5.5658 16.4338C3.27225 14.1403 1.47755 11.3247 0.375679 8.29138C0.0215933 7.31656 -0.0829008 6.31029 0.0652041 5.30041C0.203942 4.35446 0.570359 3.43615 1.12488 2.64471C1.68186 1.84979 2.4244 1.18862 3.27221 0.732705C4.17631 0.246541 5.16312 0 6.20531 0C6.52945 0 6.80959 0.226475 6.87751 0.543395L7.95657 5.579C8.00542 5.80703 7.93535 6.04429 7.77048 6.20919L5.92667 8.05296C7.66603 11.5111 10.4884 14.3335 13.9466 16.0729L15.7904 14.2291C15.9553 14.0642 16.1926 13.9942 16.4206 14.043L21.4562 15.122C21.7731 15.19 21.9996 15.4701 21.9996 15.7942C21.9996 16.8364 21.753 17.8233 21.2668 18.7274C20.8109 19.5752 20.1497 20.3177 19.3548 20.8747C18.5634 21.4292 17.6451 21.7957 16.6991 21.9344C16.4027 21.9779 16.1063 21.9996 15.8111 21.9997ZM5.65603 1.405C4.28132 1.55676 3.06116 2.2773 2.2509 3.43374C1.33976 4.73411 1.12729 6.33354 1.66798 7.82197C3.78639 13.6536 8.34602 18.2133 14.1777 20.3317C15.6661 20.8724 17.2655 20.6599 18.5659 19.7487C19.7223 18.9385 20.4429 17.7183 20.5946 16.3436L16.4982 15.4658L14.5726 17.3914C14.3677 17.5963 14.0564 17.6507 13.7942 17.5275C9.70423 15.6061 6.39359 12.2954 4.47213 8.20545C4.34895 7.94323 4.40334 7.63189 4.60825 7.42703L6.53383 5.50145L5.65603 1.405Z" fill="#FFAE4F"/>
</svg>
