<svg width="23" height="23" viewBox="0 0 23 23" fill="none" xmlns="http://www.w3.org/2000/svg">
    <path d="M22.0398 6.8929C21.4245 5.48721 20.5468 4.23541 19.4311 3.17252C19.287 3.03528 19.0591 3.04076 18.9219 3.18487C18.7847 3.32889 18.7902 3.55682 18.9343 3.69397C21.0916 5.74919 22.2797 8.52145 22.2797 11.5C22.2797 17.444 17.444 22.2798 11.5 22.2798C5.55594 22.2798 0.720232 17.444 0.720232 11.5C0.720232 5.55603 5.55603 0.720232 11.5 0.720232C13.6713 0.720232 15.7644 1.36288 17.5529 2.57861C17.7173 2.69042 17.9413 2.6477 18.0532 2.48328C18.165 2.31878 18.1222 2.0948 17.9578 1.98299C16.0494 0.685732 13.8164 0 11.5 0C8.42824 0 5.54035 1.19618 3.36829 3.36829C1.19622 5.54035 0 8.42824 0 11.5C0 14.5718 1.19622 17.4597 3.36829 19.6317C5.54035 21.8038 8.42824 23 11.5 23C14.5718 23 17.4597 21.8038 19.6317 19.6317C21.8038 17.4597 23 14.5718 23 11.5C23 9.89845 22.6769 8.34837 22.0398 6.8929Z" fill="black"/>
    <path d="M16.7261 4.87633L9.80021 8.10042C9.61989 8.18433 9.54178 8.39861 9.62573 8.57892C9.70969 8.75924 9.92393 8.83745 10.1042 8.75345L14.3765 6.76457L12.2994 8.44604L7.53291 12.3047L4.92582 11.164L8.57914 9.46335C8.75946 9.37934 8.83758 9.16515 8.75362 8.98484C8.66971 8.80452 8.45538 8.72631 8.2752 8.81032L4.34274 10.641C4.13367 10.7383 4.00169 10.9512 4.00699 11.1816C4.01216 11.4071 4.14845 11.6101 4.35505 11.7005L7.26608 12.974L8.11865 18.0894C8.17112 18.4057 8.5994 18.4957 8.77509 18.2275L11.1935 14.5362L15.7671 16.6706C16.1335 16.8417 16.5695 16.5802 16.5932 16.178L17.2375 5.2238C17.2382 5.21365 17.2382 5.20322 17.2379 5.19303C17.2307 4.9381 16.9569 4.76959 16.7261 4.87633ZM8.53615 16.2137L7.97894 12.8702L13.6557 8.27476L9.31092 13.1461C9.27184 13.19 9.24282 13.2451 9.22934 13.3024L8.53615 16.2137ZM9.30122 16.1103L9.8277 13.8989L10.5341 14.2286L9.30122 16.1103ZM10.9329 13.6199L10.1707 13.2642L13.9203 9.06017L13.3779 9.88799L10.9329 13.6199ZM15.8862 15.9315L11.5923 13.9276L16.4393 6.52972L15.8862 15.9315Z" fill="black"/>
</svg>
